<?xml version="1.0" encoding="UTF-8"?>
<svg xmlns="http://www.w3.org/2000/svg" width="100%" height="100%">
   <g transform="translate(40, 250)">
      <line x1="0"
            y1="0"
            x2="455"
            y2="0"
            stroke="black"
            stroke-width="2"/>
      <line x1="0"
            y1="0"
            x2="0"
            y2="-210"
            stroke="black"
            stroke-width="2"/>
      <text x="227.5" y="40" text-anchor="middle">Adjective</text>
      <text x="-20"
            y="-100"
            text-anchor="middle"
            transform="rotate(270,-20,-100)">Count</text>
      <line x1="-3"
            x2="3"
            y1="-20"
            y2="-20"
            stroke="black"
            stroke-width="1"/>
      <line x1="-3"
            x2="3"
            y1="-40"
            y2="-40"
            stroke="black"
            stroke-width="1"/>
      <line x1="-3"
            x2="3"
            y1="-60"
            y2="-60"
            stroke="black"
            stroke-width="1"/>
      <line x1="-3"
            x2="3"
            y1="-80"
            y2="-80"
            stroke="black"
            stroke-width="1"/>
      <line x1="-3"
            x2="3"
            y1="-100"
            y2="-100"
            stroke="black"
            stroke-width="1"/>
      <line x1="-3"
            x2="3"
            y1="-120"
            y2="-120"
            stroke="black"
            stroke-width="1"/>
      <line x1="-3"
            x2="3"
            y1="-140"
            y2="-140"
            stroke="black"
            stroke-width="1"/>
      <line x1="-3"
            x2="3"
            y1="-160"
            y2="-160"
            stroke="black"
            stroke-width="1"/>
      <line x1="-3"
            x2="3"
            y1="-180"
            y2="-180"
            stroke="black"
            stroke-width="1"/>
      <line x1="-3"
            x2="3"
            y1="-200"
            y2="-200"
            stroke="black"
            stroke-width="1"/>
      <rect x="10"
            y="-200"
            width="55"
            height="200"
            fill="#C02942"
            stroke="black"
            stroke-width="1"/>
      <text x="37.5" y="15" text-anchor="middle" font-size="75%">dear</text>
      <rect x="75"
            y="-46.15384615384615"
            width="55"
            height="46.15384615384615"
            fill="#C02942"
            stroke="black"
            stroke-width="1"/>
      <text x="102.5" y="15" text-anchor="middle" font-size="75%">filial</text>
      <rect x="140"
            y="-92.3076923076923"
            width="55"
            height="92.3076923076923"
            fill="#C02942"
            stroke="black"
            stroke-width="1"/>
      <text x="167.5" y="15" text-anchor="middle" font-size="75%">good</text>
      <rect x="205"
            y="-200"
            width="55"
            height="200"
            fill="#C02942"
            stroke="black"
            stroke-width="1"/>
      <text x="232.5" y="15" text-anchor="middle" font-size="75%">little</text>
      <rect x="270"
            y="-61.53846153846154"
            width="55"
            height="61.53846153846154"
            fill="#C02942"
            stroke="black"
            stroke-width="1"/>
      <text x="297.5" y="15" text-anchor="middle" font-size="75%">old</text>
      <rect x="335"
            y="-46.15384615384615"
            width="55"
            height="46.15384615384615"
            fill="#C02942"
            stroke="black"
            stroke-width="1"/>
      <text x="362.5" y="15" text-anchor="middle" font-size="75%">royal</text>
      <rect x="400"
            y="-138.46153846153845"
            width="55"
            height="138.46153846153845"
            fill="#C02942"
            stroke="black"
            stroke-width="1"/>
      <text x="427.5" y="15" text-anchor="middle" font-size="75%">young</text>
   </g>
</svg>
