<svg xmlns="http://www.w3.org/2000/svg"
     width="700"
     height="510"
     viewBox="-100 -100 200 210">
   <g transform="translate(-40,5)">
      <circle cx="0"
              cy="0"
              r="100"
              stroke="gray"
              stroke-width="0.2"
              fill-opacity="0"/>
      <text x="100" y="3" fill="gray" font-size="3">18</text>
      <circle r="5.2631578947368425"
              cx="0"
              cy="0"
              stroke="gray"
              stroke-width="0.2"
              fill-opacity="0"/>
      <text x="5.2631578947368425" y="3" fill="gray" font-size="3">0</text>
      <circle r="15.789473684210526"
              cx="0"
              cy="0"
              stroke="gray"
              stroke-width="0.2"
              fill-opacity="0"/>
      <text x="15.789473684210526" y="3" fill="gray" font-size="3">2</text>
      <circle r="26.31578947368421"
              cx="0"
              cy="0"
              stroke="gray"
              stroke-width="0.2"
              fill-opacity="0"/>
      <text x="26.31578947368421" y="3" fill="gray" font-size="3">4</text>
      <circle r="36.8421052631579"
              cx="0"
              cy="0"
              stroke="gray"
              stroke-width="0.2"
              fill-opacity="0"/>
      <text x="36.8421052631579" y="3" fill="gray" font-size="3">6</text>
      <circle r="47.36842105263158"
              cx="0"
              cy="0"
              stroke="gray"
              stroke-width="0.2"
              fill-opacity="0"/>
      <text x="47.36842105263158" y="3" fill="gray" font-size="3">8</text>
      <circle r="57.89473684210526"
              cx="0"
              cy="0"
              stroke="gray"
              stroke-width="0.2"
              fill-opacity="0"/>
      <text x="57.89473684210526" y="3" fill="gray" font-size="3">10</text>
      <circle r="68.42105263157895"
              cx="0"
              cy="0"
              stroke="gray"
              stroke-width="0.2"
              fill-opacity="0"/>
      <text x="68.42105263157895" y="3" fill="gray" font-size="3">12</text>
      <circle r="78.94736842105263"
              cx="0"
              cy="0"
              stroke="gray"
              stroke-width="0.2"
              fill-opacity="0"/>
      <text x="78.94736842105263" y="3" fill="gray" font-size="3">14</text>
      <circle r="89.47368421052632"
              cx="0"
              cy="0"
              stroke="gray"
              stroke-width="0.2"
              fill-opacity="0"/>
      <text x="89.47368421052632" y="3" fill="gray" font-size="3">16</text>
      <circle r="100"
              cx="0"
              cy="0"
              stroke="gray"
              stroke-width="0.2"
              fill-opacity="0"/>
      <text x="100" y="3" fill="gray" font-size="3">18</text>
      <line x1="0"
            y1="0"
            x2="70.71067811865476"
            y2="70.71067811865474"
            stroke-width="0.2"
            stroke="gray"/>
      <text x="71.71067811865476" y="70.71067811865474" font-size="6">royal</text>
      <line x1="0"
            y1="0"
            x2="6.123233995736766E-15"
            y2="100"
            stroke-width="0.2"
            stroke="gray"/>
      <text x="1.0000000000000062" y="100" font-size="6">old</text>
      <line x1="0"
            y1="0"
            x2="-70.71067811865474"
            y2="70.71067811865476"
            stroke-width="0.2"
            stroke="gray"/>
      <text x="-69.71067811865474" y="70.71067811865476" font-size="6">young</text>
      <line x1="0"
            y1="0"
            x2="-100"
            y2="1.2246467991473532E-14"
            stroke-width="0.2"
            stroke="gray"/>
      <text x="-99" y="1.2246467991473532E-14" font-size="6">youthful</text>
      <line x1="0"
            y1="0"
            x2="-70.71067811865477"
            y2="-70.71067811865474"
            stroke-width="0.2"
            stroke="gray"/>
      <text x="-69.71067811865477" y="-70.71067811865474" font-size="6">little</text>
      <line x1="0"
            y1="0"
            x2="-1.8369701987210297E-14"
            y2="-100"
            stroke-width="0.2"
            stroke="gray"/>
      <text x="0.9999999999999817" y="-100" font-size="6">dear</text>
      <line x1="0"
            y1="0"
            x2="70.71067811865474"
            y2="-70.71067811865477"
            stroke-width="0.2"
            stroke="gray"/>
      <text x="71.71067811865474" y="-70.71067811865477" font-size="6">poor</text>
      <line x1="0"
            y1="0"
            x2="100"
            y2="-2.4492935982947064E-14"
            stroke-width="0.2"
            stroke="gray"/>
      <text x="101" y="-2.4492935982947064E-14" font-size="6"/>
      <path id="Wareham"
            d="M 26.051302464767538 26.051302464767534 L 3.2227547345982975E-16 5.263157894736842 L -70.71067811865474 70.71067811865476 L -36.84210526315789 4.5118566284376165E-15 L -18.608073189119676 -18.60807318911967 L -1.9336528407589785E-15 -10.526315789473683 L 3.721614637823933 -3.7216146378239348 Z"
            stroke="#ECD078"
            stroke-width="0.2"
            fill="#ECD078"
            fill-opacity=".25"/>
      <g class="legend" id="Wareham_rect" transform="translate(100,-88)">
         <rect x="0" y="0" width="5" height="5" fill="#ECD078"/>
         <text x="7" y="4.5" font-size="6" fill="#ECD078">Wareham</text>
      </g>
      <path id="Wolsey"
            d="M 3.7216146378239343 3.7216146378239334 L 1.289101893839319E-15 21.052631578947366 L -59.545834205182935 59.54583420518295 L -31.57894736842105 3.867305681517957E-15 L -7.4432292756478695 -7.443229275647867 L -9.668264203794893E-16 -5.263157894736842 L 7.443229275647866 -7.4432292756478695 Z"
            stroke="#D95B43"
            stroke-width="0.2"
            fill="#D95B43"
            fill-opacity=".25"/>
      <g class="legend" id="Wolsey_rect" transform="translate(100,-76)">
         <rect x="0" y="0" width="5" height="5" fill="#D95B43"/>
         <text x="7" y="4.5" font-size="6" fill="#D95B43">Wolsey</text>
      </g>
      <path id="Lucy"
            d="M 14.886458551295737 14.886458551295734 L 1.6113773672991488E-15 26.31578947368421 L -37.21614637823934 37.216146378239344 L -31.57894736842105 3.867305681517957E-15 L -52.10260492953508 -52.10260492953507 L -1.256874346493336E-14 -68.42105263157895 L 3.721614637823933 -3.7216146378239348 Z"
            stroke="#C02942"
            stroke-width="0.2"
            fill="#C02942"
            fill-opacity=".25"/>
      <g class="legend" id="Lucy_rect" transform="translate(100,-64)">
         <rect x="0" y="0" width="5" height="5" fill="#C02942"/>
         <text x="7" y="4.5" font-size="6" fill="#C02942">Lucy</text>
      </g>
      <path id="Thomas-Moore"
            d="M 14.886458551295737 14.886458551295734 L 9.668264203794893E-16 15.789473684210526 L -3.7216146378239334 3.7216146378239343 L -5.263157894736842 6.445509469196595E-16 L -29.772917102591478 -29.772917102591467 L -4.834132101897446E-15 -26.31578947368421 L 48.380990291711136 -48.38099029171116 Z"
            stroke="#542437"
            stroke-width="0.2"
            fill="#542437"
            fill-opacity=".25"/>
      <g class="legend"
         id="Thomas-Moore_rect"
         transform="translate(100,-52)">
         <rect x="0" y="0" width="5" height="5" fill="#542437"/>
         <text x="7" y="4.5" font-size="6" fill="#542437">Thomas-Moore</text>
      </g>
      <path id="Guthred"
            d="M 44.65937565388721 44.6593756538872 L 1.6113773672991488E-15 26.31578947368421 L -29.772917102591467 29.772917102591475 L -31.57894736842105 3.867305681517957E-15 L -14.886458551295739 -14.886458551295734 L -4.834132101897446E-15 -26.31578947368421 L 29.772917102591464 -29.772917102591478 Z"
            stroke="#53777A"
            stroke-width="0.2"
            fill="#53777A"
            fill-opacity=".25"/>
      <g class="legend" id="Guthred_rect" transform="translate(100,-40)">
         <rect x="0" y="0" width="5" height="5" fill="#53777A"/>
         <text x="7" y="4.5" font-size="6" fill="#53777A">Guthred</text>
      </g>
   </g>
</svg>
